<svg id="Capa_1" enable-background="new 0 0 512 512" height="512" viewBox="0 0 512 512" width="512" xmlns="http://www.w3.org/2000/svg"><g><path d="m442.854 313.46c-5.62-23.11-14.19-46.33-23.27-70.92-26.81-72.64-54.54-147.75-1.57-218.55.06-.09.12-.19.18-.27 7.12-9.96-.11-23.72-12.19-23.72h-300c-12.3 0-19.39 14.1-12.01 23.99 52.97 70.8 25.24 145.91-1.57 218.55-9.08 24.59-17.65 47.81-23.27 70.92-12.42 51.04-12.77 104.83-1.21 185.66 1.05 7.39 7.38 12.88 14.85 12.88h158.22l15-38.45.02-.05 14.98 38.5h158.2c7.46 0 13.79-5.49 14.85-12.88 11.55-80.83 11.2-134.62-1.21-185.66z" fill="#ffbfab"/><path d="m444.064 499.12c-1.06 7.39-7.39 12.88-14.85 12.88h-158.2l-14.98-38.5-.02.05v-473.55h149.99c12.08 0 19.31 13.76 12.19 23.72-.06.08-.12.18-.18.27-52.97 70.8-25.24 145.91 1.57 218.55 9.08 24.59 17.65 47.81 23.27 70.92 12.41 51.04 12.76 104.83 1.21 185.66z" fill="#ffa17a"/><path d="m322.514 323.36-.33.16c-29.84 14.27-42.81 35.61-51.17 44.08v144.4h-30v-144.41c-8.92-9.05-21.3-29.81-51.34-44.15-7.49-3.54-10.73-12.5-7.19-19.99 3.53-7.49 12.44-10.71 19.93-7.17l.2.09c33.85 16.17 50.03 39.45 53.4 42.72 2.95-2.86 19.64-26.56 53.21-42.63l.29-.14c7.46-3.59 16.43-.45 20.02 7.02s.44 16.43-7.02 20.02z" fill="#ffa17a"/><path d="m322.514 323.36-.33.16c-29.84 14.27-42.81 35.61-51.17 44.08v144.4h-15v-172.91c2.95-2.86 19.64-26.56 53.21-42.63l.29-.14c7.46-3.59 16.43-.45 20.02 7.02s.44 16.43-7.02 20.02z" fill="#ff8856"/><g><path d="m271.004 197c0 8.28-6.71 14.99-14.99 15h-.01c-8.29 0-15-6.72-15-15s6.71-15 15-15h.01c8.28.01 14.99 6.72 14.99 15z" fill="#ffa17a"/></g><path d="m271.004 197c0 8.28-6.71 14.99-14.99 15v-30c8.28.01 14.99 6.72 14.99 15z" fill="#ff8856"/></g></svg>