<svg id="_x33_0" enable-background="new 0 0 64 64" height="512" viewBox="0 0 64 64" width="512" xmlns="http://www.w3.org/2000/svg"><g><path d="m32 1c-17.093 0-31 13.907-31 31 0 17.094 13.907 31 31 31s31-13.906 31-31c0-17.093-13.907-31-31-31zm0 60c-15.991 0-29-13.01-29-29 0-15.991 13.009-29 29-29s29 13.009 29 29c0 15.99-13.009 29-29 29z"/><path d="m44.858 34c-.094-.363-.238-.704-.425-1.019l1.517-1.517-1.414-1.414-1.517 1.517c-.316-.186-.656-.33-1.019-.425v-2.142h-2v2.142c-.363.094-.704.238-1.019.425l-1.517-1.517-1.414 1.414 1.517 1.517c-.186.316-.33.656-.425 1.019h-2.142v2h2.142c.094.363.238.704.425 1.019l-1.516 1.516 1.414 1.414 1.516-1.516c.316.186.656.33 1.019.425v2.142h2v-2.142c.363-.094.704-.238 1.019-.425l1.516 1.516 1.414-1.414-1.516-1.516c.186-.315.33-.656.425-1.019h2.142v-2zm-3.858 3c-1.103 0-2-.897-2-2s.897-2 2-2 2 .897 2 2-.897 2-2 2z"/><path d="m32 7c-7.242 0-14.124 3.144-18.882 8.625l-.748.862 7.727 5.096c-.662.509-1.097 1.3-1.097 2.198 0 .226.028.452.083.675.122.487.229.979.335 1.471l-9.272-6.116-.504 1.007c-1.753 3.497-2.642 7.259-2.642 11.182 0 13.785 11.215 25 25 25 7.358 0 14.311-3.226 19.077-8.851l.729-.86-5.659-3.732c1.189-.718 2.217-1.671 3.017-2.802l4.832 3.187.499-1.025c1.662-3.42 2.505-7.093 2.505-10.917 0-13.785-11.215-25-25-25zm-23 25c0-3.229.654-6.34 1.947-9.264l8.969 5.916c.167 1.102.301 2.21.386 3.318l.512 6.648c.139 1.811.812 3.516 1.946 4.934l1.145 1.431c.706.881 1.095 1.991 1.095 3.121v5.803c-9.269-2.968-16-11.665-16-21.907zm18 22.446v-6.342c0-1.584-.545-3.137-1.534-4.373l-1.145-1.431c-.882-1.103-1.405-2.429-1.513-3.837l-.512-6.648c-.203-2.638-.631-5.278-1.272-7.844-.016-.063-.024-.127-.024-.19 0-.431.35-.781.781-.781 1.775 0 3.219 1.444 3.219 3.22v5.544c0 1.759.978 3.342 2.553 4.13l.895-1.789c-.893-.446-1.448-1.343-1.448-2.341v-13.764c0-.551.449-1 1-1s1 .449 1 1v10h2v-12c0-.551.449-1 1-1s1 .449 1 1v12h.871c-1.773 1.805-2.871 4.276-2.871 7 0 4.966 3.643 9.088 8.396 9.859-.258.739-.396 1.509-.396 2.296v6.754c-2.237.716-4.595 1.091-7 1.091-1.717 0-3.389-.195-5-.554zm9-37.446c.551 0 1 .449 1 1v7.841c-.716.314-1.383.713-2 1.178v-9.019c0-.551.449-1 1-1zm5 8c-.685 0-1.354.07-2 .202v-3.202c0-.551.449-1 1-1s1 .449 1 1zm7.799 22.701c-2.216 2.371-4.877 4.217-7.799 5.461v-6.007c0-.64.12-1.264.358-1.857l.129-.323c.871-.042 1.716-.185 2.515-.437zm-7.799-4.701c-4.411 0-8-3.589-8-8s3.589-8 8-8 8 3.589 8 8-3.589 8-8 8zm12.171-1.998-3.017-1.991c.541-1.229.846-2.584.846-4.011 0-4.829-3.441-8.869-8-9.798v-3.202c0-1.654-1.346-3-3-3-.352 0-.686.072-1 .184v-1.184c0-1.654-1.346-3-3-3-.395 0-.77.081-1.116.22-.345-1.275-1.501-2.22-2.884-2.22s-2.538.945-2.884 2.22c-.346-.139-.721-.22-1.116-.22-1.654 0-3 1.346-3 3v4.143c-.538-.426-1.156-.745-1.835-.933l-7.764-5.121c4.332-4.519 10.319-7.089 16.599-7.089 12.682 0 23 10.318 23 23 0 3.134-.615 6.156-1.829 9.002z"/></g></svg>