<?xml version="1.0" encoding="iso-8859-1"?>
<!-- Generator: Adobe Illustrator 19.0.0, SVG Export Plug-In . SVG Version: 6.00 Build 0)  -->
<svg version="1.1" id="Capa_1" xmlns="http://www.w3.org/2000/svg" xmlns:xlink="http://www.w3.org/1999/xlink" x="0px" y="0px"
	 viewBox="0 0 400.681 400.681" style="enable-background:new 0 0 400.681 400.681;" xml:space="preserve">
<g>
	<path style="fill:#78B9EB;" d="M231.542,209.14c8.998,9.047,21.24,14.12,34,14.088C252.785,223.246,240.548,218.175,231.542,209.14
		z"/>
	<path style="fill:#78B9EB;" d="M209.142,231.54c9.035,9.006,14.106,21.243,14.088,34
		C223.262,252.781,218.189,240.538,209.142,231.54z"/>
</g>
<g>
	<path style="fill:#EBE5E9;" d="M143.774,313.476h31.448c2.679-0.001,5.353-0.209,8-0.624c26.141-4.408,43.758-29.173,39.35-55.314
		c-1.662-9.853-6.356-18.941-13.43-25.998c-7.174-7.225-16.49-11.939-26.56-13.44c-1.501-10.07-6.215-19.386-13.44-26.56
		c-18.739-18.752-49.131-18.762-67.882-0.023c-7.063,7.058-11.749,16.144-13.406,25.991c-0.415,2.647-0.623,5.321-0.624,8v31.448
		L56.678,287.5L8.006,336.108l56.568,56.568l48.656-48.656L143.774,313.476z M126.806,296.508l5.656-5.656L126.806,296.508z
		 M119.414,222.908c1.234-7.74,7.923-13.427,15.76-13.4c7.8-0.028,14.47,5.602,15.752,13.296
		c-1.282-7.694-7.952-13.324-15.752-13.296C127.337,209.482,120.648,215.169,119.414,222.908c-0.142,0.851-0.212,1.713-0.208,2.576
		c-0.005-0.871,0.065-1.741,0.208-2.6V222.908z M64.574,358.74l45.256-45.256L64.574,358.74z"/>
	<path style="fill:#EBE5E9;" d="M336.11,8.004l-79.2,79.2h-31.448c-2.679,0.001-5.353,0.209-8,0.624
		c-26.141,4.408-43.758,29.173-39.35,55.314c1.662,9.853,6.356,18.941,13.43,25.998c7.174,7.225,16.49,11.939,26.56,13.44
		c1.501,10.07,6.215,19.386,13.44,26.56c18.739,18.752,49.131,18.762,67.882,0.023c7.063-7.058,11.75-16.144,13.406-25.991
		c0.415-2.647,0.623-5.321,0.624-8v-31.4l30.552-30.544l48.648-48.656L336.11,8.004z M273.878,104.172l-5.656,5.656L273.878,104.172
		z M281.382,177.668c-1.227,7.749-7.922,13.445-15.768,13.416c-7.793,0.034-14.46-5.592-15.736-13.28
		c1.276,7.688,7.943,13.314,15.736,13.28C273.46,191.114,280.155,185.417,281.382,177.668c0.141-0.843,0.211-1.697,0.208-2.552
		C281.593,175.971,281.524,176.825,281.382,177.668z M290.854,87.204L336.11,41.94L290.854,87.204z"/>
</g>
<path style="fill:#FFD195;" d="M313.478,175.22c-0.001,2.679-0.209,5.353-0.624,8c-4.408,26.141-29.173,43.758-55.314,39.35
	c-9.853-1.662-18.941-6.356-25.998-13.43c-7.225-7.174-11.939-16.49-13.44-26.56c-10.07-1.501-19.386-6.215-26.56-13.44
	c-18.752-18.739-18.762-49.131-0.023-67.882c7.058-7.063,16.144-11.749,25.991-13.406c2.647-0.415,5.321-0.623,8-0.624h31.448
	l30.544-30.552C208.132,8.579,104.8,33.93,56.702,113.3c-32.438,53.528-32.438,120.648,0,174.176l30.552-30.544V225.46
	c0.001-2.679,0.209-5.353,0.624-8c4.431-26.137,29.211-43.733,55.348-39.302c9.818,1.664,18.875,6.341,25.916,13.382
	c7.225,7.174,11.939,16.49,13.44,26.56c10.07,1.501,19.386,6.215,26.56,13.44c18.752,18.739,18.762,49.131,0.023,67.882
	c-7.058,7.063-16.144,11.75-25.991,13.406c-2.647,0.415-5.321,0.623-8,0.624h-31.4L113.23,344.02
	c79.307,48.159,182.638,22.909,230.797-56.398c32.535-53.579,32.537-120.814,0.003-174.394l-30.552,30.544V175.22z"/>
<g>
	<path style="fill:#78B9EB;" d="M113.23,344.02l30.544-30.544L113.23,344.02z"/>
	<path style="fill:#78B9EB;" d="M135.118,177.428c12.769-0.018,25.016,5.062,34.024,14.112
		C160.143,182.478,147.89,177.396,135.118,177.428z"/>
	<path style="fill:#78B9EB;" d="M177.43,135.116c-0.032,12.771,5.05,25.024,14.112,34.024
		C182.492,160.133,177.413,147.885,177.43,135.116z"/>
</g>
<path d="M127.31,224.196c0.581-3.897,3.956-6.763,7.896-6.704h0.064c2.091-0.042,4.105,0.793,5.552,2.304
	c1.163,1.108,1.93,2.566,2.184,4.152l15.832-2.328c-1.843-11.563-11.795-20.086-23.504-20.128h-0.176
	c-11.711-0.026-21.713,8.444-23.616,20c-0.228,1.321-0.34,2.659-0.336,4h16C127.201,225.058,127.235,224.624,127.31,224.196
	L127.31,224.196z"/>
<path d="M273.494,176.34c-0.708,3.853-4.035,6.671-7.952,6.736c-2.105,0.051-4.136-0.782-5.6-2.296
	c-1.165-1.11-1.935-2.571-2.192-4.16l-15.824,2.344c1.849,11.573,11.824,20.094,23.544,20.112h0.104
	c11.717,0.025,21.728-8.441,23.648-20c0.223-1.3,0.332-2.617,0.328-3.936h-16C273.565,175.541,273.546,175.942,273.494,176.34
	L273.494,176.34z"/>
<path d="M330.454,36.292L285.198,81.54c-3.178,3.07-3.266,8.134-0.196,11.312c3.07,3.178,8.134,3.266,11.312,0.196
	c0.067-0.064,0.132-0.13,0.196-0.196l45.256-45.248c3.178-3.069,3.266-8.134,0.196-11.312c-3.07-3.178-8.134-3.266-11.312-0.196
	C330.584,36.16,330.519,36.226,330.454,36.292z"/>
<path d="M268.222,117.836c2.122,0,4.156-0.844,5.656-2.344l5.656-5.656c3.126-3.124,3.128-8.19,0.004-11.316
	s-8.19-3.128-11.316-0.004l-5.656,5.656c-3.128,3.12-3.135,8.186-0.014,11.314C264.054,116.992,266.095,117.838,268.222,117.836z"/>
<path d="M115.494,307.828c-3.122-3.126-8.188-3.129-11.314-0.006c-0.002,0.002-0.004,0.004-0.006,0.006l-45.256,45.248
	c-3.178,3.069-3.266,8.134-0.196,11.312c3.069,3.178,8.134,3.266,11.312,0.196c0.067-0.064,0.132-0.13,0.196-0.196l45.264-45.248
	C118.617,316.016,118.617,310.952,115.494,307.828L115.494,307.828z"/>
<path d="M126.806,285.188l-5.656,5.656c-3.126,3.124-3.128,8.19-0.004,11.316c3.124,3.126,8.19,3.128,11.316,0.004l5.656-5.656
	c3.126-3.124,3.128-8.19,0.004-11.316C134.999,282.066,129.932,282.065,126.806,285.188L126.806,285.188z"/>
<path d="M398.334,58.916L341.766,2.348c-3.124-3.123-8.188-3.123-11.312,0l-44.4,44.4C201.291-0.655,94.148,29.632,46.745,114.396
	c-29.825,53.332-29.826,118.324-0.003,171.657l-44.4,44.4c-3.123,3.124-3.123,8.188,0,11.312l56.568,56.568
	c3.124,3.123,8.188,3.123,11.312,0l44.376-44.392c84.793,47.386,191.946,17.062,239.333-67.731
	c29.794-53.313,29.798-118.264,0.011-171.581l44.4-44.4C401.463,67.102,401.46,62.038,398.334,58.916z M64.574,381.364
	l-45.248-45.256l73.536-73.544c1.5-1.5,2.344-3.534,2.344-5.656V225.46c0.001-2.223,0.17-4.442,0.504-6.64
	c3.643-21.789,24.26-36.499,46.049-32.855c8.219,1.374,15.804,5.281,21.695,11.175c6.024,5.961,9.953,13.714,11.2,22.096
	c0.513,3.492,3.253,6.235,6.744,6.752c8.384,1.242,16.138,5.172,22.096,11.2c7.516,7.518,11.74,17.713,11.744,28.344
	c0.001,2.414-0.214,4.824-0.64,7.2c-0.286,1.3-0.639,2.584-1.056,3.848c-0.28,0.968-0.448,1.984-0.8,2.92
	c-4.981,13.378-16.723,23.08-30.8,25.448c-2.223,0.353-4.469,0.532-6.72,0.536h-31.448c-2.122,0-4.156,0.844-5.656,2.344
	L64.574,381.364z M313.478,313.484c-49.339,49.606-125.246,61.268-187.2,28.76l20.8-20.76h28.144
	c3.086-0.005,6.167-0.246,9.216-0.72h0.096c4.976-0.836,9.819-2.332,14.4-4.448c19.759-9.152,32.39-28.961,32.352-50.736
	c0-0.144,0-0.28,0-0.424c-0.179-25.337-17.347-47.397-41.864-53.792c-6.447-24.679-28.741-41.893-54.248-41.888
	c-27.386-0.022-50.755,19.801-55.2,46.824c-0.471,3.047-0.709,6.125-0.712,9.208v28.136l-20.8,20.8
	C17.556,196.072,47.928,99.378,126.301,58.472c46.383-24.21,101.671-24.223,148.066-0.036l-20.8,20.76h-28.104
	c-3.118,0.006-6.231,0.252-9.312,0.736c-4.976,0.836-9.819,2.332-14.4,4.448c-19.759,9.152-32.39,28.961-32.352,50.736v0.424
	c0.179,25.337,17.347,47.397,41.864,53.792c6.389,24.494,28.415,41.657,53.728,41.864h0.48c27.386,0.022,50.755-19.801,55.2-46.824
	c0.471-3.047,0.709-6.125,0.712-9.208v-28.08l20.8-20.8C374.707,188.226,363.068,264.133,313.478,313.484L313.478,313.484z
	 M307.822,138.116c-1.5,1.5-2.344,3.534-2.344,5.656v31.448c-0.001,2.223-0.17,4.442-0.504,6.64
	c-1.118,6.497-3.825,12.617-7.88,17.816c-0.304,0.4-0.544,0.864-0.872,1.248c-0.89,0.996-1.83,1.947-2.816,2.848
	c-0.688,0.672-1.296,1.424-2.024,2.04s-1.6,1.096-2.344,1.664c-1.08,0.8-2.112,1.6-3.272,2.312
	c-0.688,0.408-1.456,0.672-2.168,1.032c-1.322,0.722-2.684,1.369-4.08,1.936c-0.592,0.216-1.232,0.312-1.832,0.504
	c-1.618,0.553-3.269,1.005-4.944,1.352c-0.8,0.144-1.688,0.128-2.528,0.224c-1.537,0.232-3.086,0.371-4.64,0.416
	c-10.627,0.01-20.823-4.203-28.344-11.712c-6.024-5.961-9.953-13.714-11.2-22.096c-0.513-3.492-3.253-6.235-6.744-6.752
	c-8.384-1.242-16.138-5.172-22.096-11.2c-15.643-15.599-15.678-40.926-0.079-56.568c5.872-5.888,13.433-9.8,21.631-11.192
	c2.231-0.353,4.486-0.532,6.744-0.536h31.448c2.122,0,4.156-0.844,5.656-2.344l73.544-73.536l45.248,45.256L307.822,138.116z"/>
<g>
</g>
<g>
</g>
<g>
</g>
<g>
</g>
<g>
</g>
<g>
</g>
<g>
</g>
<g>
</g>
<g>
</g>
<g>
</g>
<g>
</g>
<g>
</g>
<g>
</g>
<g>
</g>
<g>
</g>
</svg>
